Patient4_TMGait_0pt6_01_right_38_EMG.mot
version=1
nRows=40
nColumns=33
inDegrees=no
endheader
time	1LAddLong	2LGlutMax	3LGlutMed	4LIliopsoas	5LSemiMemb	6LBicFemLong	7LRecFem	8LVastMed	9LVastLat	10LGasMed	11LTibAnt	12lTibPost	13LPeroneusLong	14LSol	15LExtDigLong	16LFlexDigLong	17RAddLong	18RGlutMax	19RGlutMed	20RIliopsoas	21RSemiMemb	22RBicFemLong	23RRecFem	24RVastMed	25RVastLat	26RGasMed	27RTibAnt	28RTibPost	29RPeroneusLong	30RSol	31RExtDigLong	32RFlexDigLong
46.545	0.056458	-0.004578	0.018158	0.001068	0.041046	-0.44083	0.14694	0.007782	0.040131	0.065155	0.018158	0.014191	-0.1886	0.1471	0.14557	0.011139	-0.051422	-0.103	-0.086212	-0.001678	-0.19318	0.071411	-0.1709	0.007172	0.039063	0.001373	0.029602	0.001221	-0.065002	-0.15686	0.000305	-0.008698
46.546	0.048523	-0.005951	0.033264	0.016785	0.042725	-0.37506	0.15381	0.005341	0.022888	0.012665	0.037079	0.017548	0.085907	0.1889	-0.41306	0.016785	-0.029602	-0.024719	-0.054626	0.054321	-0.075073	-0.055237	-0.16953	0.024872	0.020599	0	-0.071259	-0.00412	-0.064087	-0.11292	0.005188	-0.014648
46.547	0.040283	0.007782	0.001221	-0.001526	0.073395	-0.38071	0.12772	-0.004883	0.053253	-0.033722	0.16861	0.02121	0.33539	0.21378	-0.047607	0.016479	0.001373	0.007782	-0.0177	0.058746	0.33249	-0.098572	-0.1944	0.029602	0.008698	0.00351	-0.08255	-0.007477	0.00061	0.044556	0.003052	-0.018616
46.548	0.032959	0.04837	0.008698	0.000458	0.048218	-0.41458	0.073395	-0.000153	0.025482	-0.026093	0.51621	0.014191	0.19073	0.1915	-0.060577	0.009003	0.046997	-0.042877	-0.079956	0.024872	0.46402	-0.14008	-0.22079	0.025024	0.006866	-0.003052	0.002747	-0.007477	-0.023346	0.23209	0.002441	-0.02121
46.549	0.019073	0.042877	0.071564	-0.007019	-0.020599	-0.39688	0.081329	-0.001373	-0.026398	0.032196	0.32745	0.020599	0.097809	0.063934	-0.27527	0.003204	0.028687	-0.086517	-0.084686	0.029907	0.22324	0.039673	-0.21057	0.022736	0.001678	-0.008392	0.072479	0.000763	-0.12329	0.30029	0.002136	-0.024109
46.55	0.001831	0.052643	0.081177	0.032654	0.002899	-0.33539	0.074463	0.005035	-0.14832	0.036926	-0.094452	0.013733	0.21805	0.035553	-0.22369	0.009155	-0.013275	-0.005341	-0.052948	0.045013	-0.12848	0.30655	-0.27496	0.01709	0.016479	-0.02243	0.04776	-0.000763	-0.043335	0.071716	0.00412	-0.013885
46.551	-0.014801	0.035248	0.041809	0.027924	0.0177	-0.000763	0.094757	-0.000916	-0.25238	0.058136	-0.17166	0.016022	-0.12253	0.002747	-0.18234	-0.012054	-0.070038	-0.034943	-0.022736	0.072632	-0.009155	0.43243	-0.3215	0.069122	0.02121	-0.031738	-0.01297	-0.00351	0.090942	-0.13596	0.004578	-0.014801
46.552	-0.031128	0.095367	0.033875	0.011902	-0.018921	0.16205	0.13107	0.00885	-0.13947	0.042877	-0.24246	0.00824	0.060577	0.006714	-0.046692	-0.000305	-0.079193	-0.03418	0.067749	0.032043	0.10498	0.21316	-0.25391	0.061646	0.029755	-0.008545	0.058594	0.001526	0.18417	-0.1001	0.002441	-0.016479
46.553	-0.021515	0.079956	0.019989	0.014801	-0.097046	0.31097	0.10727	0.012054	0.017853	0.009003	-0.298	0.011292	-0.056915	0.10132	-0.13763	0.002441	-0.054474	0.02655	0.024261	-0.009155	0.015869	-0.058899	-0.27191	0.121	0.052338	0.039063	0.12528	0.010681	0.20096	-0.29892	0.009003	-0.015564
46.554	-0.015869	0.045776	-0.076294	-0.007477	-0.085297	0.39215	0.059052	-0.005798	0.10391	0.031738	-0.17166	0.011444	-0.48981	0.060883	0.17303	-0.002747	-0.075684	0.048065	-0.014954	-0.0177	-0.11902	-0.2623	-0.2478	0.068054	0.075378	0.062408	0.0737	0.012512	0.19745	-0.383	0.005646	-0.012817
46.555	0.0177	0.007477	-0.050812	0.006256	0.033112	0.41672	-0.008087	0.02594	0.087433	0.043182	-0.046387	0.014801	-0.25909	-0.024567	-0.3447	0.010071	-0.045013	0.023346	-0.002289	-0.024261	-0.18387	-0.3865	-0.28442	0.095825	0.053864	0.052338	0.033112	-0.001984	0.090485	-0.25452	0.004425	-0.011902
46.556	0.028076	-0.023804	-0.003052	-0.001526	0.14984	0.35584	-0.090027	0.040436	0.10574	0.022736	-0.026093	0.007019	0.048065	-0.01709	-0.16022	0.001831	-0.005188	0.008392	0.009155	-0.00946	-0.051117	-0.57404	-0.2388	-0.006104	0.018311	0.074158	0.02594	-0.093994	-0.043335	0.36224	0.011292	-0.013123
46.557	0.028839	-0.002289	0.11139	0.001678	0.18463	0.30365	-0.086823	0.043793	0.29098	0.027313	-0.029297	0.013733	0.06897	-0.061646	0.053253	-0.016022	0.006561	-0.056763	0.10452	-0.087128	0.10727	-0.36789	-0.22934	0.012512	0.026245	0.027618	0.037231	0.002747	-0.19272	0.9845	0.010834	-0.000458
46.558	0.019226	0.014038	0.065002	-0.00946	0.065308	0.21622	-0.063629	0.042725	0.37659	0.014191	-0.007324	0.006561	0.53497	0.009003	0.10254	0.006409	0.015411	0.027313	0.066681	-0.072937	0.094757	-0.242	-0.25894	0.036621	0.048828	-0.003662	0.052643	0.039825	-0.16342	0.82764	0.006866	-0.006714
46.559	-0.001068	0.014801	0.030823	-0.007629	-0.065918	-0.23956	-0.086212	0.024872	0.41763	-0.035095	0.005798	0.00061	0.49515	0.036621	0.097198	0.012207	0.064087	-0.056305	0.004883	-0.083313	0.052948	-0.20325	-0.26321	0.1149	0.023804	-0.025024	0.060272	0.01297	-0.04715	0.32471	0.007019	-0.00412
46.56	0.002136	0.026245	-0.02655	-0.012817	-0.21423	-0.4158	-0.1799	-0.006866	0.45487	-0.013428	0.012207	0.012817	-0.31662	-0.0354	-0.002136	0.012665	0.10193	-0.065765	0.015259	-0.077972	-0.039063	-0.19134	-0.30075	0.075378	0.016785	-0.11826	0.10178	-0.001373	0.077667	0.029144	0.012817	-0.004883
46.561	0.007629	0.055084	-0.072479	-0.022888	-0.2594	-0.12405	-0.18738	-0.027618	0.2948	0.026398	0.006409	0.013885	-0.1329	-0.09552	-0.042267	0.007629	0.09613	0.075836	-0.020599	-0.14084	-0.13962	-0.10971	-0.26581	-0.00473	0.013275	-0.112	0.078583	-0.002899	0.28183	-0.12726	0.022736	-0.01358
46.562	0.00351	0.03006	-0.038605	-0.018616	-0.08606	0.036163	-0.012665	-0.058289	0.13565	0.014954	-0.011597	0.010986	-0.080261	-0.044861	0.037994	0.011139	0.037079	0.068817	-0.012817	-0.13901	-0.1799	-0.025635	-0.28702	0.023346	0.010071	-0.067139	0.061188	-0.006256	0.39032	-0.2063	0.007477	-0.018768
46.563	-0.002289	0.023193	0.074158	0.003357	0.041809	-0.055847	0.17029	-0.068359	-0.20172	-0.016785	-0.014801	0.006256	-0.072937	-0.050507	0.11536	0.014343	0.020752	-0.032349	0.007172	-0.036163	-0.085297	-0.093536	-0.2739	0.051117	0.017853	-0.027313	0.067139	-0.010834	0.27863	-0.052795	0.00824	-0.026093
46.564	-0.004425	-0.019073	0.17075	0.022125	0.061035	-0.062714	0.30182	-0.039215	-0.44266	-0.037994	-0.011292	0.010223	-0.094452	-0.013123	0.099792	0.000763	0.037994	-0.043335	0.042877	-0.046539	-0.15015	-0.11444	-0.27191	0.081024	0.019073	0.016632	0.06012	-0.013428	0.13245	0.002441	0.015717	-0.012817
46.565	-0.002899	-0.080566	0.15991	0.013885	0.098572	-0.081482	0.22171	-0.019836	-0.46356	-0.01236	0.017395	0.008392	-0.16251	-0.033569	0.089111	0.010681	0.059509	-0.057068	0.001984	0.12421	0.12177	-0.016479	-0.25406	0.019684	0.00946	0.014191	-0.005188	-0.015869	0.10773	0.27496	0.01358	-0.001373
46.566	0.002441	-0.08606	0.12253	0.016937	0.092773	-0.14404	0.14343	-0.002899	-0.22385	0.016174	0.022888	0.010223	-0.1535	0.00824	0.073547	0.010071	0.072937	-0.03006	0.066833	0.27618	0.032349	0.023956	-0.24414	0.046692	0.031586	0.000458	-0.018921	-0.020142	0.034332	0.41138	0.013733	-0.021973
46.567	-0.017853	-0.10544	0.10086	0.038757	0.081635	-0.17853	0.018311	0.014801	0.12512	0.030975	0.028839	0.010986	-0.13855	-0.020599	0.01297	0.005188	0.000916	-0.02243	0.072327	0.27222	0.046997	0.036621	-0.34027	0.11322	0.059204	-0.016632	0.014496	-0.029602	-0.048981	0.43076	0.015411	-0.023499
46.568	-0.042114	-0.13382	0.064087	0.029449	0.1059	-0.050812	-0.01297	0.028839	0.20096	0.028687	0.02182	0.006714	-0.22644	-0.075684	0.021057	0.007782	-0.019684	0.030365	0.081787	0.16586	-0.00061	-0.13168	-0.37186	0.12085	0.063171	-0.040741	0.092316	0.048523	0.030823	0.060425	0.015411	-0.02655
46.569	-0.042725	-0.097351	0.084534	0.024719	0.000458	-0.041809	-0.072021	0.034943	0.10773	0.015259	0.007935	0.007172	-0.14877	-0.015564	0.063171	-0.007019	-0.006409	0.047913	0.10574	0.037384	-0.002289	-0.1831	-0.30975	0.036011	0.020752	-0.05188	0.09964	0.032043	-0.028992	-0.32211	0.009766	-0.020447
46.57	-0.027008	-0.15701	0.011902	0.004425	-0.11444	-0.21255	-0.14206	0.009918	-0.055389	0.020752	0	0.010834	0.005646	0.040283	0.096436	0.002594	-0.04425	0.06073	0.121	-0.030212	-0.08667	-0.027466	-0.24567	0.001221	0.028381	-0.036469	0.055389	-0.01709	-0.16708	-0.45944	0.014801	-0.012817
46.571	0.03067	-0.16052	-0.046997	-0.016174	-0.06012	-0.21622	-0.2446	-0.007935	-0.083618	0.015717	-0.006561	0.013428	0.15137	0.081787	0.054779	0.008087	-0.064545	0.072327	0.17075	-0.030365	-0.056152	0.063477	-0.32562	0.032349	0.032654	0.035858	0.034943	-0.001526	-0.18906	-0.18188	0.016327	-0.017853
46.572	0.063782	-0.15106	-0.06958	-0.008545	0.054626	-0.23865	-0.20203	-0.022736	0.20081	0.023499	0.042114	0.012054	-0.007935	0.04776	0.017395	0	-0.074921	0.12299	0.12238	-0.016479	-0.07019	0.22156	-0.32318	0.075836	0.017242	0.067749	-0.049286	0.032654	0.020447	-0.056458	0.014191	-0.014038
46.573	0.057526	-0.20554	-0.11734	-0.002747	0.19638	-0.22659	-0.1207	-0.026093	0.21179	0.010071	0.063019	0.02655	-0.030518	0.031128	-0.039673	0.012665	-0.068054	0.10956	0.18585	-0.04364	0.007782	0.30426	-0.27603	0.094604	0.017548	0.051117	-0.05722	-0.012512	0.012665	0.35645	0.01297	-0.007629
46.574	0.060272	-0.20432	-0.076752	-0.005035	0.19043	-0.056763	-0.053711	-0.018158	-0.024414	-0.000305	0.068817	0.028839	0.017242	0.029755	-0.084076	0.009003	-0.003815	0.11826	0.21011	-0.046234	0.07843	0.19669	-0.30991	0.099945	0.020447	0.000458	-0.031738	-0.027313	0.02533	0.39932	0.014496	-0.003052
46.575	0.080872	-0.11459	-0.023041	0.000916	0.066681	0.13199	-0.09079	-0.000153	-0.18555	-0.003662	0.003357	0.023651	0	0.066071	-0.062866	0.019226	0.039978	0.14832	0.18951	-0.044403	0.030518	-0.041656	-0.16052	0.026245	-0.003204	0.025787	-0.040894	-0.014343	0.28839	0.1387	0.014954	-0.001678
46.576	0.088196	-0.023499	0.060425	0.016632	0.025482	0.19409	-0.22308	0.006256	-0.1561	-0.01236	-0.14816	0.019836	0.008087	0.10544	0.11078	0.021515	0.089569	0.12863	0.10239	0.008545	0.12695	-0.14801	0.035248	-0.065765	-0.031891	0.023499	-0.004578	-0.013885	0.27679	-0.056763	0.015717	-0.005951
46.577	0.062103	-0.041504	0.061646	0.005035	0.059814	0.001984	-0.22476	-0.005341	0.003204	-0.003815	-0.10025	0.029602	-0.017242	0.089264	0.11566	0.027161	0.10712	0.12222	0.092926	0.040131	0.10742	-0.32181	0.041504	0.022278	-0.020294	0.017395	0.015259	0.00351	0.11932	-0.18539	0.014038	-0.010223
46.578	0.03891	0.014191	0.036774	0.000458	0.052032	-0.006104	-0.21194	-0.010071	0.084839	0.007019	0.039063	0.036163	-0.062103	0.1033	0.38757	0.021362	0.078888	0.12085	0.081329	0.046539	0.15442	-0.67795	0.043335	0.018311	-0.012665	0.010376	0.036774	-0.000305	0.018158	-0.10452	0.014343	-0.019073
46.579	0.016479	0.013428	0.042114	0.008698	0.010986	0.13977	-0.15106	-0.012054	0.071716	0.020294	0.093384	0.030518	-0.083771	0.086517	0.38101	0.029602	0.12222	0.015564	0.076752	0.069885	-0.039825	-0.80322	0.090332	-0.093842	-0.03418	-0.019073	0.050354	-0.007172	0.024261	0.026093	0.013733	-0.012665
46.58	-0.013275	0.016174	0.052948	0.015106	-0.03418	0.24643	-0.094452	-0.014191	0.034637	0.016937	0.15564	0.042572	-0.021515	0.11078	0.15213	0.027313	0.11551	0.050507	0.14999	-0.047302	-0.25085	-0.64865	0.009766	0.020142	-0.011292	-0.030823	0.011292	-0.011292	0.029907	0.10834	0.012054	-0.009155
46.581	-0.025482	0.063629	0.001221	0.018005	-0.086823	0.29266	-0.089722	0.006714	-0.018005	0.006409	0.11887	0.041809	0.12192	0.12451	-0.032654	0.022278	0.10391	0.047455	0.12329	-0.064545	-0.21668	-0.54245	-0.00061	-0.009155	-0.016327	-0.032349	0.051575	-0.005493	-0.019226	-0.055695	0.011902	-0.014801
46.582	-0.038757	0.032501	-0.011597	-0.003204	-0.13977	0.12314	-0.052948	0.040283	-0.016174	-0.007629	0.053711	0.050201	0.26581	0.14648	-0.26337	0.009003	0.049744	0.020294	0.025177	-0.028839	-0.10468	-0.65674	-0.12085	0.018005	0.014343	-0.013428	0.14923	-0.004883	-0.016022	-0.38147	0.014191	-0.018616
46.583	-0.035706	0.054474	-0.021973	0.016174	-0.15335	-0.17197	-0.018463	0.061646	0.002594	-0.001526	0.006561	0.041809	0.25146	0.14816	-0.47424	0.009155	-0.013123	-0.0354	0.10529	-0.072021	-0.22781	-0.83008	-0.19119	-0.036163	0.034332	-0.002289	0.13031	-0.010071	-0.00824	-0.44266	0.00946	-0.004578
46.584	-0.032349	0.053864	0.099335	0.021973	-0.12329	-0.34958	-0.026093	0.061646	0.016174	-0.004425	-0.12329	0.045624	0.02243	0.1384	-0.37811	0.009918	-0.013275	0.009613	0.031281	-0.005798	-0.48538	-0.24689	-0.22568	-0.088806	0.017242	0.015564	0.2002	-0.003357	-0.06546	-0.32562	0.013123	-0.012207
